<mxfile host="app.diagrams.net" agent="Mozilla/5.0 (X11; Linux x86_64; rv:109.0) Gecko/20100101 Firefox/115.0" version="24.7.7">
  <diagram name="Page-1" id="-H_mtQnk-PTXWXPvYvuk">
    <mxGraphModel dx="1674" dy="759" grid="1" gridSize="10" guides="1" tooltips="1" connect="1" arrows="1" fold="1" page="1" pageScale="1" pageWidth="1169" pageHeight="827" math="0" shadow="0">
      <root>
        <mxCell id="0" />
        <mxCell id="1" parent="0" />
        <mxCell id="zA23MoTUsTF4_91t8viU-3" value="pymongo-api" style="rounded=1;whiteSpace=wrap;html=1;" parent="1" vertex="1">
          <mxGeometry x="230" y="140" width="120" height="60" as="geometry" />
        </mxCell>
        <mxCell id="zA23MoTUsTF4_91t8viU-4" style="edgeStyle=orthogonalEdgeStyle;rounded=0;orthogonalLoop=1;jettySize=auto;html=1;exitX=1;exitY=0.5;exitDx=0;exitDy=0;entryX=0;entryY=0.5;entryDx=0;entryDy=0;" parent="1" source="zA23MoTUsTF4_91t8viU-3" target="evDaVQiNcyYSsjcUy_6b-2" edge="1">
          <mxGeometry relative="1" as="geometry" />
        </mxCell>
        <mxCell id="evDaVQiNcyYSsjcUy_6b-6" style="edgeStyle=orthogonalEdgeStyle;rounded=0;orthogonalLoop=1;jettySize=auto;html=1;entryX=0;entryY=0.5;entryDx=0;entryDy=0;" edge="1" parent="1" source="evDaVQiNcyYSsjcUy_6b-2" target="evDaVQiNcyYSsjcUy_6b-3">
          <mxGeometry relative="1" as="geometry" />
        </mxCell>
        <mxCell id="evDaVQiNcyYSsjcUy_6b-2" value="router" style="rounded=1;whiteSpace=wrap;html=1;" vertex="1" parent="1">
          <mxGeometry x="460" y="140" width="120" height="60" as="geometry" />
        </mxCell>
        <mxCell id="evDaVQiNcyYSsjcUy_6b-3" value="configServer" style="rounded=1;whiteSpace=wrap;html=1;" vertex="1" parent="1">
          <mxGeometry x="707" y="140" width="120" height="60" as="geometry" />
        </mxCell>
        <mxCell id="evDaVQiNcyYSsjcUy_6b-8" value="" style="endArrow=classic;startArrow=classic;html=1;rounded=0;entryX=0.25;entryY=1;entryDx=0;entryDy=0;movable=1;resizable=1;rotatable=1;deletable=1;editable=1;locked=0;connectable=1;edgeStyle=elbowEdgeStyle;elbow=vertical;" edge="1" parent="1" target="evDaVQiNcyYSsjcUy_6b-2">
          <mxGeometry width="50" height="50" relative="1" as="geometry">
            <mxPoint x="510" y="630" as="sourcePoint" />
            <mxPoint x="610" y="370" as="targetPoint" />
            <Array as="points">
              <mxPoint x="530" y="630" />
            </Array>
          </mxGeometry>
        </mxCell>
        <mxCell id="evDaVQiNcyYSsjcUy_6b-10" style="edgeStyle=orthogonalEdgeStyle;rounded=0;orthogonalLoop=1;jettySize=auto;html=1;entryX=0.35;entryY=1.017;entryDx=0;entryDy=0;entryPerimeter=0;exitX=0.874;exitY=-0.004;exitDx=0;exitDy=0;exitPerimeter=0;" edge="1" parent="1" source="evDaVQiNcyYSsjcUy_6b-19">
          <mxGeometry relative="1" as="geometry">
            <mxPoint x="745" y="201.01999999999998" as="targetPoint" />
          </mxGeometry>
        </mxCell>
        <mxCell id="evDaVQiNcyYSsjcUy_6b-11" style="edgeStyle=orthogonalEdgeStyle;rounded=0;orthogonalLoop=1;jettySize=auto;html=1;entryX=0.75;entryY=1;entryDx=0;entryDy=0;" edge="1" parent="1" target="evDaVQiNcyYSsjcUy_6b-3">
          <mxGeometry relative="1" as="geometry">
            <mxPoint x="780" y="630" as="sourcePoint" />
            <Array as="points">
              <mxPoint x="797" y="630" />
            </Array>
          </mxGeometry>
        </mxCell>
        <mxCell id="evDaVQiNcyYSsjcUy_6b-12" value="&lt;font style=&quot;font-size: 18px;&quot;&gt;РЕПЛИКАЦИЯ&lt;/font&gt;" style="text;strokeColor=none;align=center;fillColor=none;html=1;verticalAlign=middle;whiteSpace=wrap;rounded=0;" vertex="1" parent="1">
          <mxGeometry x="490" y="50" width="150" height="30" as="geometry" />
        </mxCell>
        <mxCell id="evDaVQiNcyYSsjcUy_6b-13" value="mongodb1-2" style="shape=cylinder3;whiteSpace=wrap;html=1;boundedLbl=1;backgroundOutline=1;size=15;" vertex="1" parent="1">
          <mxGeometry x="529" y="390" width="85" height="80" as="geometry" />
        </mxCell>
        <mxCell id="evDaVQiNcyYSsjcUy_6b-14" value="mongodb1-3" style="shape=cylinder3;whiteSpace=wrap;html=1;boundedLbl=1;backgroundOutline=1;size=15;" vertex="1" parent="1">
          <mxGeometry x="673" y="390" width="90" height="80" as="geometry" />
        </mxCell>
        <mxCell id="evDaVQiNcyYSsjcUy_6b-15" value="" style="endArrow=classic;startArrow=classic;html=1;rounded=0;entryX=0.5;entryY=1;entryDx=0;entryDy=0;entryPerimeter=0;exitX=0.5;exitY=0;exitDx=0;exitDy=0;exitPerimeter=0;" edge="1" parent="1" target="zA23MoTUsTF4_91t8viU-2">
          <mxGeometry width="50" height="50" relative="1" as="geometry">
            <mxPoint x="567.5" y="390" as="sourcePoint" />
            <mxPoint x="643" y="340" as="targetPoint" />
          </mxGeometry>
        </mxCell>
        <mxCell id="evDaVQiNcyYSsjcUy_6b-16" value="" style="endArrow=classic;startArrow=classic;html=1;rounded=0;exitX=0.5;exitY=0;exitDx=0;exitDy=0;exitPerimeter=0;entryX=0.625;entryY=1;entryDx=0;entryDy=0;entryPerimeter=0;" edge="1" parent="1" target="zA23MoTUsTF4_91t8viU-2">
          <mxGeometry width="50" height="50" relative="1" as="geometry">
            <mxPoint x="714" y="390" as="sourcePoint" />
            <mxPoint x="643" y="340" as="targetPoint" />
          </mxGeometry>
        </mxCell>
        <mxCell id="evDaVQiNcyYSsjcUy_6b-17" value="" style="endArrow=classic;startArrow=classic;html=1;rounded=0;exitX=1;exitY=0.5;exitDx=0;exitDy=0;exitPerimeter=0;entryX=0;entryY=0.5;entryDx=0;entryDy=0;entryPerimeter=0;" edge="1" parent="1" source="evDaVQiNcyYSsjcUy_6b-13" target="evDaVQiNcyYSsjcUy_6b-14">
          <mxGeometry width="50" height="50" relative="1" as="geometry">
            <mxPoint x="560" y="390" as="sourcePoint" />
            <mxPoint x="610" y="340" as="targetPoint" />
          </mxGeometry>
        </mxCell>
        <mxCell id="evDaVQiNcyYSsjcUy_6b-19" value="Replicaset0" style="swimlane;whiteSpace=wrap;html=1;startSize=20;" vertex="1" parent="1">
          <mxGeometry x="510" y="250" width="270" height="230" as="geometry" />
        </mxCell>
        <mxCell id="zA23MoTUsTF4_91t8viU-2" value="mongodb1-1" style="shape=cylinder3;whiteSpace=wrap;html=1;boundedLbl=1;backgroundOutline=1;size=15;" parent="evDaVQiNcyYSsjcUy_6b-19" vertex="1">
          <mxGeometry x="99" y="30" width="80" height="80" as="geometry" />
        </mxCell>
        <mxCell id="evDaVQiNcyYSsjcUy_6b-21" style="edgeStyle=orthogonalEdgeStyle;rounded=0;orthogonalLoop=1;jettySize=auto;html=1;entryX=0.037;entryY=0.008;entryDx=0;entryDy=0;entryPerimeter=0;" edge="1" parent="1" source="evDaVQiNcyYSsjcUy_6b-2" target="evDaVQiNcyYSsjcUy_6b-19">
          <mxGeometry relative="1" as="geometry" />
        </mxCell>
        <mxCell id="evDaVQiNcyYSsjcUy_6b-22" value="mongodb2-2" style="shape=cylinder3;whiteSpace=wrap;html=1;boundedLbl=1;backgroundOutline=1;size=15;" vertex="1" parent="1">
          <mxGeometry x="529" y="660" width="85" height="80" as="geometry" />
        </mxCell>
        <mxCell id="evDaVQiNcyYSsjcUy_6b-23" value="mongodb2-3" style="shape=cylinder3;whiteSpace=wrap;html=1;boundedLbl=1;backgroundOutline=1;size=15;" vertex="1" parent="1">
          <mxGeometry x="673" y="660" width="90" height="80" as="geometry" />
        </mxCell>
        <mxCell id="evDaVQiNcyYSsjcUy_6b-24" value="" style="endArrow=classic;startArrow=classic;html=1;rounded=0;entryX=0.5;entryY=1;entryDx=0;entryDy=0;entryPerimeter=0;exitX=0.5;exitY=0;exitDx=0;exitDy=0;exitPerimeter=0;" edge="1" parent="1" target="evDaVQiNcyYSsjcUy_6b-28">
          <mxGeometry width="50" height="50" relative="1" as="geometry">
            <mxPoint x="567.5" y="660" as="sourcePoint" />
            <mxPoint x="643" y="610" as="targetPoint" />
          </mxGeometry>
        </mxCell>
        <mxCell id="evDaVQiNcyYSsjcUy_6b-25" value="" style="endArrow=classic;startArrow=classic;html=1;rounded=0;exitX=0.5;exitY=0;exitDx=0;exitDy=0;exitPerimeter=0;entryX=0.625;entryY=1;entryDx=0;entryDy=0;entryPerimeter=0;" edge="1" parent="1" target="evDaVQiNcyYSsjcUy_6b-28">
          <mxGeometry width="50" height="50" relative="1" as="geometry">
            <mxPoint x="714" y="660" as="sourcePoint" />
            <mxPoint x="643" y="610" as="targetPoint" />
          </mxGeometry>
        </mxCell>
        <mxCell id="evDaVQiNcyYSsjcUy_6b-26" value="" style="endArrow=classic;startArrow=classic;html=1;rounded=0;exitX=1;exitY=0.5;exitDx=0;exitDy=0;exitPerimeter=0;entryX=0;entryY=0.5;entryDx=0;entryDy=0;entryPerimeter=0;" edge="1" parent="1" source="evDaVQiNcyYSsjcUy_6b-22" target="evDaVQiNcyYSsjcUy_6b-23">
          <mxGeometry width="50" height="50" relative="1" as="geometry">
            <mxPoint x="560" y="660" as="sourcePoint" />
            <mxPoint x="610" y="610" as="targetPoint" />
          </mxGeometry>
        </mxCell>
        <mxCell id="evDaVQiNcyYSsjcUy_6b-27" value="Replicaset1" style="swimlane;whiteSpace=wrap;html=1;startSize=20;" vertex="1" parent="1">
          <mxGeometry x="510" y="520" width="270" height="230" as="geometry" />
        </mxCell>
        <mxCell id="evDaVQiNcyYSsjcUy_6b-28" value="mongodb2-1" style="shape=cylinder3;whiteSpace=wrap;html=1;boundedLbl=1;backgroundOutline=1;size=15;" vertex="1" parent="evDaVQiNcyYSsjcUy_6b-27">
          <mxGeometry x="99" y="30" width="80" height="80" as="geometry" />
        </mxCell>
      </root>
    </mxGraphModel>
  </diagram>
</mxfile>
